<?xml version="1.0" encoding="UTF-8"?>
<!DOCTYPE svg PUBLIC "-//W3C//DTD SVG 1.1//EN" "http://www.w3.org/Graphics/SVG/1.1/DTD/svg11.dtd">
<svg xmlns="http://www.w3.org/2000/svg" version="1.1" width="225px" height="225px" style="shape-rendering:geometricPrecision; text-rendering:geometricPrecision; image-rendering:optimizeQuality; fill-rule:evenodd; clip-rule:evenodd" xmlns:xlink="http://www.w3.org/1999/xlink">
<g><path style="opacity:1" fill="#892750" d="M 160.5,194.5 C 159.508,194.328 158.842,194.662 158.5,195.5C 132.157,206.489 105.157,208.322 77.5,201C 57.2492,195.434 48.0826,182.267 50,161.5C 51.4758,156.545 53.9758,152.212 57.5,148.5C 49.124,140.191 46.2906,130.191 49,118.5C 53.1667,109 60,102.167 69.5,98C 81.1608,93.8897 93.1608,91.3897 105.5,90.5C 108.455,82.8002 107.622,75.4669 103,68.5C 101.681,66.5125 99.8477,65.3459 97.5,65C 83.5754,63.8512 70.2421,66.1845 57.5,72C 55.0243,73.3088 53.0243,75.1421 51.5,77.5C 47.9296,45.8938 61.9296,27.7271 93.5,23C 110.933,21.0612 127.933,22.8946 144.5,28.5C 152.375,26.6445 160.209,24.6445 168,22.5C 168.5,22.8333 169,23.1667 169.5,23.5C 172.713,30.7574 176.046,37.9241 179.5,45C 175.697,49.1322 171.531,52.9655 167,56.5C 169.6,91.9049 153.1,110.405 117.5,112C 110.962,112.775 104.462,112.609 98,111.5C 94.8634,112.945 94.6967,114.778 97.5,117C 112.437,118.415 127.437,119.415 142.5,120C 172.18,123.011 184.347,139.178 179,168.5C 176.036,179.603 169.869,188.269 160.5,194.5 Z"/></g>
<g><path style="opacity:1" fill="#242424" d="M 93.5,158.5 C 106.552,158.807 119.552,159.641 132.5,161C 134.251,164.943 132.918,167.277 128.5,168C 118.5,168.667 108.5,168.667 98.5,168C 94.1249,166.299 92.4582,163.133 93.5,158.5 Z"/></g>
</svg>
